<svg width="83" height="17" viewBox="0 0 83 17" fill="none" xmlns="http://www.w3.org/2000/svg">
<path d="M2.64746 13H0.432617V0.203125H2.64746V13ZM7.51625 3.49023L7.57777 4.58887C8.2809 3.73926 9.20375 3.31445 10.3463 3.31445C12.3268 3.31445 13.3346 4.44824 13.3698 6.71582V13H11.234V6.83887C11.234 6.23535 11.1022 5.79004 10.8385 5.50293C10.5807 5.20996 10.1559 5.06348 9.5641 5.06348C8.70277 5.06348 8.06117 5.45312 7.6393 6.23242V13H5.50355V3.49023H7.51625ZM21.2444 10.416C21.2444 10.0352 21.0862 9.74512 20.7698 9.5459C20.4593 9.34668 19.9407 9.1709 19.2141 9.01855C18.4876 8.86621 17.8811 8.67285 17.3948 8.43848C16.3284 7.92285 15.7952 7.17578 15.7952 6.19727C15.7952 5.37695 16.1409 4.69141 16.8323 4.14062C17.5237 3.58984 18.4026 3.31445 19.469 3.31445C20.6057 3.31445 21.5227 3.5957 22.22 4.1582C22.9231 4.7207 23.2747 5.4502 23.2747 6.34668H21.1389C21.1389 5.93652 20.9866 5.59668 20.6819 5.32715C20.3772 5.05176 19.9729 4.91406 19.469 4.91406C19.0003 4.91406 18.6165 5.02246 18.3177 5.23926C18.0247 5.45605 17.8782 5.74609 17.8782 6.10938C17.8782 6.4375 18.0159 6.69238 18.2913 6.87402C18.5667 7.05566 19.1233 7.24023 19.9612 7.42773C20.7991 7.60938 21.4554 7.8291 21.93 8.08691C22.4104 8.33887 22.7649 8.64355 22.9934 9.00098C23.2278 9.3584 23.345 9.79199 23.345 10.3018C23.345 11.1572 22.9905 11.8516 22.2815 12.3848C21.5725 12.9121 20.6438 13.1758 19.4954 13.1758C18.7161 13.1758 18.0218 13.0352 17.4124 12.7539C16.803 12.4727 16.3284 12.0859 15.9886 11.5938C15.6487 11.1016 15.4788 10.5713 15.4788 10.0029H17.553C17.5823 10.5068 17.7727 10.8965 18.1243 11.1719C18.4759 11.4414 18.9417 11.5762 19.5218 11.5762C20.0843 11.5762 20.512 11.4707 20.805 11.2598C21.0979 11.043 21.2444 10.7617 21.2444 10.416ZM28.2489 1.17871V3.49023H29.9277V5.07227H28.2489V10.3809C28.2489 10.7441 28.3193 11.0078 28.4599 11.1719C28.6064 11.3301 28.8642 11.4092 29.2333 11.4092C29.4794 11.4092 29.7284 11.3799 29.9804 11.3213V12.9736C29.4941 13.1084 29.0253 13.1758 28.5741 13.1758C26.9335 13.1758 26.1132 12.2705 26.1132 10.46V5.07227H24.5487V3.49023H26.1132V1.17871H28.2489ZM37.6089 13C37.5152 12.8184 37.4332 12.5225 37.3629 12.1123C36.6832 12.8213 35.8511 13.1758 34.8668 13.1758C33.9117 13.1758 33.1324 12.9033 32.5289 12.3584C31.9254 11.8135 31.6236 11.1396 31.6236 10.3369C31.6236 9.32324 31.9986 8.54688 32.7486 8.00781C33.5045 7.46289 34.5826 7.19043 35.983 7.19043H37.2925V6.56641C37.2925 6.07422 37.1548 5.68164 36.8795 5.38867C36.6041 5.08984 36.1851 4.94043 35.6226 4.94043C35.1363 4.94043 34.7379 5.06348 34.4273 5.30957C34.1168 5.5498 33.9615 5.85742 33.9615 6.23242H31.8257C31.8257 5.71094 31.9986 5.22461 32.3443 4.77344C32.69 4.31641 33.1588 3.95898 33.7505 3.70117C34.3482 3.44336 35.0132 3.31445 35.7457 3.31445C36.8589 3.31445 37.7466 3.5957 38.4088 4.1582C39.0709 4.71484 39.4107 5.5 39.4283 6.51367V10.8027C39.4283 11.6582 39.5484 12.3408 39.7886 12.8506V13H37.6089ZM35.2623 11.4619C35.6841 11.4619 36.0796 11.3594 36.4488 11.1543C36.8238 10.9492 37.105 10.6738 37.2925 10.3281V8.53516H36.1412C35.3502 8.53516 34.7554 8.67285 34.357 8.94824C33.9586 9.22363 33.7593 9.61328 33.7593 10.1172C33.7593 10.5273 33.8941 10.8555 34.1636 11.1016C34.439 11.3418 34.8052 11.4619 35.2623 11.4619ZM41.6516 8.1748C41.6516 6.69824 41.9973 5.52051 42.6887 4.6416C43.3859 3.75684 44.3088 3.31445 45.4572 3.31445C46.5412 3.31445 47.3937 3.69238 48.0148 4.44824L48.1115 3.49023H50.0363V12.71C50.0363 13.958 49.6467 14.9424 48.8674 15.6631C48.0939 16.3838 47.048 16.7441 45.7297 16.7441C45.0324 16.7441 44.3498 16.5977 43.6818 16.3047C43.0197 16.0176 42.5158 15.6396 42.1701 15.1709L43.1809 13.8877C43.8371 14.667 44.6457 15.0566 45.6066 15.0566C46.3156 15.0566 46.8752 14.8633 47.2854 14.4766C47.6955 14.0957 47.9006 13.5332 47.9006 12.7891V12.1475C47.2854 12.833 46.465 13.1758 45.4396 13.1758C44.3264 13.1758 43.4152 12.7334 42.7062 11.8486C42.0031 10.9639 41.6516 9.73926 41.6516 8.1748ZM43.7785 8.35938C43.7785 9.31445 43.9719 10.0674 44.3586 10.6182C44.7512 11.1631 45.2932 11.4355 45.9846 11.4355C46.8459 11.4355 47.4846 11.0664 47.9006 10.3281V6.14453C47.4963 5.42383 46.8635 5.06348 46.0021 5.06348C45.299 5.06348 44.7512 5.3418 44.3586 5.89844C43.9719 6.45508 43.7785 7.27539 43.7785 8.35938ZM57.577 5.44141C57.2957 5.39453 57.0057 5.37109 56.7069 5.37109C55.7284 5.37109 55.0692 5.74609 54.7293 6.49609V13H52.5936V3.49023H54.6327L54.6854 4.55371C55.201 3.72754 55.9159 3.31445 56.8299 3.31445C57.1346 3.31445 57.3866 3.35547 57.5858 3.4375L57.577 5.44141ZM64.7046 13C64.6108 12.8184 64.5288 12.5225 64.4585 12.1123C63.7788 12.8213 62.9468 13.1758 61.9624 13.1758C61.0073 13.1758 60.228 12.9033 59.6245 12.3584C59.021 11.8135 58.7192 11.1396 58.7192 10.3369C58.7192 9.32324 59.0942 8.54688 59.8442 8.00781C60.6001 7.46289 61.6782 7.19043 63.0786 7.19043H64.3882V6.56641C64.3882 6.07422 64.2505 5.68164 63.9751 5.38867C63.6997 5.08984 63.2807 4.94043 62.7182 4.94043C62.2319 4.94043 61.8335 5.06348 61.5229 5.30957C61.2124 5.5498 61.0571 5.85742 61.0571 6.23242H58.9214C58.9214 5.71094 59.0942 5.22461 59.4399 4.77344C59.7856 4.31641 60.2544 3.95898 60.8462 3.70117C61.4438 3.44336 62.1089 3.31445 62.8413 3.31445C63.9546 3.31445 64.8423 3.5957 65.5044 4.1582C66.1665 4.71484 66.5063 5.5 66.5239 6.51367V10.8027C66.5239 11.6582 66.644 12.3408 66.8843 12.8506V13H64.7046ZM62.3579 11.4619C62.7798 11.4619 63.1753 11.3594 63.5444 11.1543C63.9194 10.9492 64.2007 10.6738 64.3882 10.3281V8.53516H63.2368C62.4458 8.53516 61.8511 8.67285 61.4526 8.94824C61.0542 9.22363 60.855 9.61328 60.855 10.1172C60.855 10.5273 60.9897 10.8555 61.2593 11.1016C61.5346 11.3418 61.9009 11.4619 62.3579 11.4619ZM71.129 3.49023L71.1905 4.4834C71.8585 3.7041 72.7726 3.31445 73.9327 3.31445C75.2042 3.31445 76.0743 3.80078 76.5431 4.77344C77.2345 3.80078 78.2071 3.31445 79.4611 3.31445C80.5099 3.31445 81.2892 3.60449 81.7989 4.18457C82.3146 4.76465 82.5782 5.62012 82.59 6.75098V13H80.4542V6.8125C80.4542 6.20898 80.3224 5.7666 80.0587 5.48535C79.795 5.2041 79.3585 5.06348 78.7491 5.06348C78.2628 5.06348 77.8644 5.19531 77.5538 5.45898C77.2491 5.7168 77.0353 6.05664 76.9122 6.47852L76.921 13H74.7853V6.74219C74.756 5.62305 74.1847 5.06348 73.0714 5.06348C72.2159 5.06348 71.6095 5.41211 71.2521 6.10938V13H69.1163V3.49023H71.129Z" fill="#2196F3"/>
</svg>
